# xmcd CD database file
# Copyright (C) 1996 Ti Kan
#
# Track frame offsets:
#	182
#	18170
#	37227
#	51757
#	72900
#	89650
#	108920
#	128182
#	144975
#	163807
#
# Disc length: 2333 seconds
#
# Revision: 1
# Processed by: cddbd v1.4b41PL1 Copyright (c) Steve Scherf et al.
# Submitted via: EasyCD 2.21 - (C) 1996 Greg Leichner
#
DISCID=8a091b0a
DTITLE=Gary Morris - Full Moon, Empty Heart
DYEAR=1900
DGENRE=
TTITLE0=Full Moon On An Empty Heart
TTITLE1=Texas Bound
TTITLE2=One Fall Is All It Takes
TTITLE3=The Man Upstairs
TTITLE4=Promised Land
TTITLE5=Where Love Is Concerned
TTITLE6=Moosechin Stew
TTITLE7=She Keeps Me In One Piece
TTITLE8=The Light May Not Be On
TTITLE9=Maybe Now You'll See
EXTD=
EXTT0=
EXTT1=
EXTT2=
EXTT3=
EXTT4=
EXTT5=
EXTT6=
EXTT7=
EXTT8=
EXTT9=
PLAYORDER=
